<svg xmlns="http://www.w3.org/2000/svg" xmlns:xlink="http://www.w3.org/1999/xlink" width="72" height="64" viewBox="0 0 72 64" fill="none"><path    style="mix-blend-mode:normal" fill="#000000"  d="M36.7692 18.9231C36.7692 18.4982 36.4248 18.1538 36 18.1538C35.5752 18.1538 35.2308 18.4982 35.2308 18.9231L35.2308 21.2308L32.9231 21.2308C32.4982 21.2308 32.1538 21.5752 32.1538 22C32.1538 22.4248 32.4982 22.7692 32.9231 22.7692L35.2308 22.7692L35.2308 25.0769C35.2308 25.5018 35.5752 25.8462 36 25.8462C36.4248 25.8462 36.7692 25.5018 36.7692 25.0769L36.7692 22.7692L39.0769 22.7692C39.5018 22.7692 39.8462 22.4248 39.8462 22C39.8462 21.5752 39.5018 21.2308 39.0769 21.2308L36.7692 21.2308L36.7692 18.9231Z"></path><path    style="mix-blend-mode:normal" fill="#000000"  d="M40.578 12.1269C39.4066 12 37.93 12 36.0464 12L35.9536 12C34.07 12 32.5934 12 31.422 12.1269C30.2266 12.2564 29.258 12.5255 28.431 13.1263C27.9303 13.4901 27.4901 13.9303 27.1263 14.431C26.5255 15.258 26.2564 16.2266 26.1269 17.422C26 18.5934 26 20.07 26 21.9536L26 22.0464C26 23.93 26 25.4066 26.1269 26.578C26.2564 27.7734 26.5255 28.742 27.1263 29.569C27.4901 30.0697 27.9303 30.5099 28.431 30.8737C29.258 31.4745 30.2266 31.7436 31.422 31.8731C32.5934 32 34.0699 32 35.9535 32L36.0464 32C37.93 32 39.4066 32 40.578 31.8731C41.7734 31.7436 42.742 31.4745 43.569 30.8737C44.0696 30.5099 44.5099 30.0697 44.8737 29.569C45.4745 28.742 45.7436 27.7734 45.8731 26.578C46 25.4066 46 23.9301 46 22.0465L46 21.9536C46 20.07 46 18.5934 45.8731 17.422C45.7436 16.2266 45.4745 15.258 44.8737 14.431C44.5099 13.9303 44.0696 13.4901 43.569 13.1263C42.742 12.5255 41.7734 12.2564 40.578 12.1269ZM29.3353 14.371C29.8563 13.9924 30.5232 13.7717 31.5877 13.6564C32.6667 13.5395 34.0599 13.5385 36 13.5385C37.9401 13.5385 39.3333 13.5395 40.4123 13.6564C41.4768 13.7717 42.1437 13.9924 42.6647 14.371C43.0348 14.6398 43.3602 14.9652 43.6291 15.3353C44.0076 15.8563 44.2283 16.5232 44.3436 17.5877C44.4605 18.6667 44.4615 20.0599 44.4615 22C44.4615 23.9401 44.4605 25.3333 44.3436 26.4123C44.2283 27.4768 44.0076 28.1437 43.6291 28.6647C43.3602 29.0348 43.0348 29.3602 42.6647 29.629C42.1437 30.0076 41.4768 30.2283 40.4123 30.3436C39.3333 30.4605 37.9401 30.4615 36 30.4615C34.0599 30.4615 32.6667 30.4605 31.5877 30.3436C30.5232 30.2283 29.8563 30.0076 29.3353 29.629C28.9652 29.3602 28.6398 29.0348 28.371 28.6647C27.9924 28.1437 27.7717 27.4768 27.6564 26.4123C27.5395 25.3333 27.5385 23.9401 27.5385 22C27.5385 20.0599 27.5395 18.6667 27.6564 17.5877C27.7717 16.5232 27.9924 15.8563 28.371 15.3353C28.6398 14.9652 28.9652 14.6398 29.3353 14.371Z"></path><g ><path    style="mix-blend-mode:normal" fill="#000000"  d="M35.304 42.8L35.304 43.712L33.96 43.712L33.96 49.544Q33.96 50.144 33.81 50.474Q33.66 50.804 33.3 50.954Q32.94 51.104 32.28 51.104L30.84 51.104L30.648 50.168L32.076 50.168Q32.496 50.168 32.694 50.102Q32.892 50.036 32.964 49.856Q33.036 49.676 33.036 49.292L33.036 43.712L29.64 43.712L29.64 42.8L33.036 42.8L33.036 40.376L33.96 40.376L33.96 42.8L35.304 42.8ZM29.16 42.608Q28.752 44.972 27.972 46.724Q28.944 48.128 29.784 49.4L29.028 49.976Q28.368 48.944 27.516 47.672Q26.64 49.34 25.152 51.02L24.6 50.132Q26.088 48.524 26.94 46.82Q25.74 45.056 24.924 43.952L25.632 43.436Q26.244 44.264 27.372 45.86Q27.972 44.372 28.26 42.596L24.948 42.596L24.948 41.684L29.16 41.684L29.16 42.608ZM31.416 47.876Q30.504 46.4 29.604 45.056L30.276 44.588Q30.576 45.008 31.152 45.884Q31.728 46.76 32.136 47.408L31.416 47.876ZM44.856 45.884Q45.168 47.396 45.714 48.374Q46.26 49.352 47.28 50.228L46.656 51.008Q45.612 50.048 44.982 48.836Q44.352 47.624 44.004 45.884L43.2 45.884L43.2 49.916L44.616 49.112L44.724 50.084L42.348 51.344L41.94 50.516Q42.144 50.372 42.228 50.252Q42.312 50.132 42.312 49.988L42.312 45.884L41.436 45.884L41.436 45.044L42.312 45.044L42.312 40.388L43.2 40.388L43.2 45.044L47.136 45.044L47.136 45.884L44.856 45.884ZM46.872 41.588Q46.224 42.224 45.408 42.896Q44.592 43.568 43.884 44.048L43.416 43.304Q44.088 42.872 44.892 42.194Q45.696 41.516 46.308 40.892L46.872 41.588ZM40.26 41.732L37.968 41.732L37.968 47.996L37.188 47.996L37.188 40.904L41.052 40.904L41.052 47.948L40.26 47.948L40.26 41.732ZM39.504 46.508Q39.504 47.372 39.384 48.008Q40.584 49.22 41.436 50.192L40.884 50.84Q40.284 50.108 39.144 48.872Q38.892 49.496 38.43 50.072Q37.968 50.648 37.188 51.344L36.648 50.576Q37.524 49.88 37.962 49.298Q38.4 48.716 38.556 48.044Q38.712 47.372 38.712 46.316L38.712 42.56L39.504 42.56L39.504 46.508Z"></path></g></svg>